<?xml version="1.0" encoding="utf-8"?>
<!-- Generator: Adobe Illustrator 26.0.2, SVG Export Plug-In . SVG Version: 6.00 Build 0)  -->
<svg version="1.1" id="_x3C_레이어_x3E_" xmlns="http://www.w3.org/2000/svg" xmlns:xlink="http://www.w3.org/1999/xlink"
	 x="0px" y="0px" viewBox="0 0 168.8 79.5" style="enable-background:new 0 0 168.8 79.5;" xml:space="preserve">
<style type="text/css">
	.st0{fill:#E66F00;}
</style>
<g>
	<path d="M146.5,54.5c3.1,0,5.5-2.2,5.5-4.9c0-2.7-2.5-4.9-5.5-4.9c-3.1,0-5.5,2.2-5.5,4.9C141,52.3,143.5,54.5,146.5,54.5z
		 M146.5,47c1.3,0,2.3,1.2,2.3,2.6c0,1.4-1,2.6-2.3,2.6c-1.3,0-2.3-1.2-2.3-2.6C144.2,48.2,145.3,47,146.5,47z M151.4,61.5h5.3v2
		h3.3V46.5c0-0.9-0.7-1.7-1.7-1.7h-1.7v14.3h-5.3V61.5z M130.5,62.5h1.7c0.9,0,1.7-0.7,1.7-1.7V47.2c0-0.5-0.3-0.8-0.8-0.8h-16.7
		v2.3h14.2V62.5z M147.7,66.7v-4.4h-3.3v5.9c0,0.5,0.3,0.8,0.8,0.8h13.9c0.6,0,1.2-0.5,1.2-1.2v-1.2H147.7z M128.2,57
		c0-0.9-0.7-1.6-1.6-1.6h-1.6v10.2h-2V57c0-0.9-0.7-1.6-1.6-1.6h-1.6v10.2h-5.3v2.3h20.2c0.6,0,1.2-0.5,1.2-1.2v-1.2h-7.5V57z
		 M147.7,61.2v-3.5h7.5v-2.3h-16.3v2.3h5.5v3.5H147.7z"/>
	<g>
		<path d="M36.5,59.6c-0.3-1.1-4.3-14.7-4.3-14.7h-4.1c0,0-3.9,13.6-4.2,14.7c-0.3-1.1-3.4-14.7-3.4-14.7h-4.9L21.3,69h4.6
			c0,0,4-14,4.3-15c0.3,1,4.3,15,4.3,15h4.7l5.6-24.2h-4.9C39.9,44.9,36.8,58.5,36.5,59.6z M93.5,44.9c0,0,0,14.3,0,15.3
			c-0.6-0.8-10.2-15.3-10.2-15.3h-4.7V69h4.9c0,0,0-14.3,0-15.3C84.1,54.6,93.8,69,93.8,69h4.6V44.9H93.5z M36,20.4
			c-0.3-0.4-5.7-8.4-5.7-8.4h-9.8c0,0-8,8.2-8.6,8.7c0-0.7,0-8.7,0-8.7h-5v24.2h5c0,0,0-9,0-9.7c0.5,0.5,9.5,9.7,9.5,9.7h5.9
			c0,0-11.5-12.4-11.7-12.7c0.2-0.2,7.3-7.7,9.9-10.5c2,3.2,7.9,12.6,7.9,12.7c0,0.1,0,10.4,0,10.4h5c0,0,0-10.3,0-10.4
			c0-0.1,8.6-13.7,8.6-13.7h-5.3C41.7,12.1,36.2,20.1,36,20.4z"/>
		<path class="st0" d="M60.5,9.9c-7.8,0-14.2,6.4-14.2,14.2c0,6.2,4,11.5,9.5,13.4c1-1.5,2.7-2.6,4.7-2.6c2,0,3.7,1,4.7,2.6
			c5.5-1.9,9.5-7.2,9.5-13.4C74.7,16.3,68.3,9.9,60.5,9.9z M60.5,32.7c-4.7,0-8.6-3.8-8.6-8.6c0-4.7,3.8-8.6,8.6-8.6
			c4.7,0,8.6,3.8,8.6,8.6C69.1,28.9,65.2,32.7,60.5,32.7z"/>
		<path class="st0" d="M65.2,43.5c-1,1.5-2.7,2.6-4.7,2.6c-2,0-3.7-1-4.7-2.6c-5.5,1.9-9.5,7.2-9.5,13.4c0,7.8,6.4,14.2,14.2,14.2
			c7.8,0,14.2-6.4,14.2-14.2C74.7,50.7,70.7,45.5,65.2,43.5z M60.5,65.5c-4.7,0-8.6-3.8-8.6-8.6c0-4.7,3.8-8.6,8.6-8.6
			c4.7,0,8.6,3.8,8.6,8.6C69.1,61.7,65.2,65.5,60.5,65.5z"/>
	</g>
</g>
</svg>
